<svg id="svgMaungaMap"
	xmlns:rdf="http://www.w3.org/1999/02/22-rdf-syntax-ns#" xmlns="http://www.w3.org/2000/svg" height="360" width="300" version="1.1" xmlns:cc="http://creativecommons.org/ns#" xmlns:xlink="http://www.w3.org/1999/xlink" xmlns:dc="http://purl.org/dc/elements/1.1/"
	onload="SetParams()"
	>

	<script id="library" xlink:href="library.js"/>
	<defs id="localdefs">
		<radialGradient id="Shiny"
		cx="0.5" cy="0.5" r="0.50" fx="0.25" fy="0.25">
			<stop offset="0%" stop-color="#ffffff" />
			<stop offset="50%" stop-color="#dd3333" />
			<stop offset="75%" stop-color="#990000" />
			<stop offset="100%" stop-color="#000000" />
		</radialGradient>
	</defs>
	
	<g id="gBackdrop">
		<rect id="rectBackdrop" height="360" width="300" y="0" x="0" fill="#FFF"/>
	</g>
	<g id="gmap" transform="translate(0,-2220)">
		<g id="layer13">
			<path id="path3633" stroke-linejoin="miter" d="m274.8,2466,3.044-0.8522,6.33,1.217m-169.2-181.9,1.122,5.462,14.12-5.935,7.944-5.113,8.278,2.556m-7.791,228.9,2.1-2.618" stroke="#a7a9ac" stroke-linecap="butt" stroke-miterlimit="4" stroke-dasharray="none" stroke-width="1.09565306" fill="none"/>
		</g>
		<g id="gPaleGreen">
			<path id="pathPaleGreen" stroke-linejoin="miter" d="m96.71,2437-1.126,2.678,1.491,2.739,3.044,1.644,8.644,0,7.974-2.617,5.691,1.583" stroke="#dbe9ad" stroke-linecap="butt" stroke-miterlimit="4" stroke-dasharray="none" stroke-width="1.09565306" fill="none"/>
		</g>
		<g id="gDarkGreen">
			<path id="pathDarkGreen" stroke-linejoin="miter" d="m62.53,2451,3.256-1.491-2.222-5.273,4.626-4.748,7.03-3.956,6.878-2.458,5.235-5.942,0.1217-5.623-1.217-4.725,4.139-1.035,3.104-0.1218,4.261-4.748,6.422-0.3652,8.552-4.2,2.922-18.56,4.748-7.883,6.209-7.791,7.304-1.134-4.778-8.727,2.861-9.8,3.5-6.33-0.5478-5.661-5.417-1.704,4.748-10.14,4.235-1.408-1.678-7.563-0.3652-4.87-1.339-3.226,2.13-1.887,3.652,1.035,1.948-5.942-1.491-6.422-2.496-6.909,0.7-6.817,7.032-2.397,4.412,9.579,2.374,0.3957,1.339,6.665,2.678,2.678-0.6985,3.977,5.256-0.3043,3.203,4.096,1.108,4.946,0.3222,3.172,5.174,1.522,1.522,1.461-3.652,2.922,0,5.722,1.856,13.76-2.952,4.504,1.4,2.435,5.235,0.5174,1.583,3.317-1.887,5.509,1.035,3.804,7.487,2.929,3.378,2.336-1.887,6.3-2.222,2.983-6.696,2.13-4.078,3.835-1.096,3.69-1.826,4.04,5.539,8.826,0.3652,6.756-3.652,5.904-4.2,2.617-3.348,6.787-6.27-0.4565-4.93,0.487-3.378,5.509-9.161,1.491-1.461,3.348-7.244,0-5.539,4.9-5.113,8.978,0,7.221,0.7304,7.632-0.6696,6.087" stroke="#009448" stroke-linecap="butt" stroke-miterlimit="4" stroke-dasharray="none" stroke-width="1.09565306" fill="none"/>
		</g>
		<g id="gLimeGreen">
			<path id="pathLimeGreen" stroke-linejoin="miter" d="m178.6,2436-1.461-4.139-3.835-5.844-5.6-2.617-3.652-5.722-2.983-5.783,2.617-8.948,0-5.296-5.539-2.678-7.061-1.339-6.635,8.583-6.148,6.391-9.556,3.896-3.348,3.53-4.078,0-8.948,4.748-6.391-0.3652-3.53,2.556-0.5478,8.339-5.174,5.904-3.409,0-8.096,5.965-7.791-0.4869-7.365,2.556-0.1217,10.99" stroke="#abd037" stroke-linecap="butt" stroke-miterlimit="4" stroke-dasharray="none" stroke-width="1.09565306" fill="none"/>
		</g>
		<g id="gYellow">
			<path id="pathYellow" stroke-linejoin="miter" d="m24.09,2497-0.2674-6.87,12.61-7.504,5.605-5.94-0.01-4.43,10.14-5.216,1.412-7.524,5.982-4.802,2.161-4.154,5.311,2.663,5.95,4.915,6.315,0.6696-1.933,4.185,1.917,5.098,7.03-0.6695,1.233,2.937,4.854-0.2891,6.863,2.572,4.93,1.156,9.587-5.296,2.252,1.491,12.51-9.039,6.483-5.174,5.935-1.309,0.8217-8.248,3.348-5.57,4.35-3.017,4.578,0.7089,8.148-2.256,7.302-1.037,7.172,0.6822,6.107-1.096,6.2,0.7107,3.044,3.359,1.4,5.222,4.404,1.701,4.526,1.291,2.981,3.686,5.987-0.3456,7.836,4.755,6.298,4.172,5.369-3.076,6.16-6.9,8.119-1.062,4.746,3.244,8.676,3.751,6.345,1.064,3.332,2.279,1.201,4.384,4.916,2.057-2.195,9.145-2.392,5.955-3.722,4.236-2.211,3.624-10.4,2.599-11.67,0.3834-3.953,2.216-4.946,5.135-5.971-1.4-2.99,3.681-0.6785,4.177-9.256-7.492-5.34,0.3151-4.995-3.989-6.598,0.174-7.598,4.533-4.197,5.97-0.3077,6.8-7.809-3.35-4.481-5.552-5.667-2.845-5.533-2.424-3.319,1.402-1.072,4.531-2.639,3.029-0.3222,4.678-7.56-0.6914-5.103-3.355,0.0504-5.197-5.865-6.57-4.979-3.772-2.974-0.4012,0.3956-4.596,1.156-3.683-1.856-8.43-6.853-6.932" stroke="#ffc20d" stroke-linecap="butt" stroke-miterlimit="4" stroke-dasharray="none" stroke-width="0.97391391" fill="none"/>
		</g>
		<g id="gRiver">
			<path id="pathRiver" fill="#110b0c" d="m199.76,2501.3c-0.17239-0.1724-0.31348-0.434-0.31348-0.5813,0-0.249,0.0153-0.2541,0.21621-0.072,0.36144,0.3271,1.1188,0.3767,1.6374,0.1072,0.38689-0.2011,0.48513-0.2117,0.66957-0.072,0.29351,0.2227,1.3769,0.2166,1.6995-0.01,0.22912-0.1605,0.299-0.1606,0.60541,0,0.43875,0.2288,1.1013,0.2314,1.5339,0.01,0.32102-0.1675,0.33478-0.1625,0.33478,0.1197,0,0.3913-0.48257,0.6957-1.0898,0.6873-0.50424-0.01-0.97976-0.1953-0.97976-0.3879,0-0.063-0.20549,0.026-0.45652,0.1977-0.52153,0.3558-1.2147,0.346-1.6228-0.023-0.22254-0.2014-0.24592-0.201-0.47625,0.01-0.13598,0.1231-0.50582,0.2446-0.84304,0.277-0.5247,0.05-0.64059,0.018-0.91426-0.2557zm-1.5924-1.7652c-0.46054-0.1521-0.65033-0.3247-0.73677-0.6701l-0.0866-0.3462,0.3752,0.1941c0.50571,0.2615,1.2673,0.2483,1.6082-0.028,0.26515-0.2148,0.28779-0.2146,0.71351,0.01,0.51289,0.2676,1.2478,0.2254,1.5984-0.092,0.20841-0.1887,0.24883-0.1895,0.50461-0.01,0.35584,0.2492,1.305,0.2522,1.6581,0.01,0.25712-0.18,0.27051-0.1749,0.27051,0.1029,0,0.1608-0.11531,0.3967-0.25626,0.5243-0.34878,0.3157-1.327,0.3189-1.6727,0.01-0.24457-0.2213-0.25784-0.2206-0.57704,0.03-0.42646,0.3355-1.2527,0.3469-1.6496,0.023-0.27805-0.2267-0.29534-0.2271-0.5309-0.013-0.28122,0.2554-0.86472,0.3833-1.2174,0.2669v0.0001zm-5.0936-1.0619c0.0764-0.1993-0.10827-0.8007-0.59592-1.9406-0.4777-1.1162-0.90281-1.6824-1.2033-1.6045-0.4228,0.1106-0.23495-0.1363,0.4099-0.5384,0.95224-0.5939,6.2464-3.2432,6.664-3.3357,0.2066-0.045,0.63731-0.0001,1.0033,0.1055,0.35268,0.1018,1.3257,0.3007,2.1633,0.4422,1.7835,0.3014,3.4428,0.6527,4.3826,0.928,0.5785,0.1695,0.63304,0.21,0.40076,0.2978-0.41975,0.1587-0.69087,1.2527-0.69866,2.8195-0.005,1.1106-0.0342,1.2977-0.19125,1.249-0.99242-0.3115-5.3285-1.0315-6.2197-1.0328-0.51508,0-2.2607,0.7397-4.5652,1.9356-0.88748,0.4609-1.585,0.7638-1.551,0.6731zm0.64242-0.4086c0.28353-0.2179,0.28986-0.2519,0.14012-0.7515-0.24506-0.818-1.05-2.4883-1.3379-2.7757-0.24555-0.2455-0.28085-0.2494-0.62902-0.069l-0.36887,0.1908,0.31749,0.3773c0.42256,0.5023,0.93861,1.5655,1.2134,2.5017,0.12295,0.4186,0.25589,0.7597,0.29546,0.7582,0.0396,0,0.20562-0.1054,0.36899-0.2309zm0.85911-0.4357,0.35268-0.1824-0.18748-0.6313c-0.27051-0.9111-1.06-2.559-1.3476-2.8134-0.20769-0.1835-0.29668-0.1947-0.56658-0.072-0.35998,0.164-0.40783,0.3694-0.13829,0.5931,0.32942,0.2735,0.88784,1.3854,1.1771,2.3435,0.15644,0.5183,0.30094,0.9429,0.32103,0.9435,0.0201,0,0.19515-0.081,0.3892-0.1813zm0.90781-0.4458c0.17056-0.078,0.31007-0.1774,0.31007-0.2213,0-0.5767-1.1244-3.0593-1.5656-3.4574-0.23629-0.2132-0.27464-0.2155-0.55257-0.033l-0.29863,0.1956,0.5096,0.7638c0.28256,0.4235,0.66324,1.2381,0.85425,1.8285,0.18954,0.5858,0.3646,1.0652,0.38883,1.0652,0.0243,0,0.18371-0.064,0.35426-0.1412zm0.97391-0.487c0.17056-0.078,0.31007-0.1787,0.31007-0.2245,0-0.4667-1.1818-3.0069-1.5875-3.4135-0.22412-0.2241-0.26928-0.2287-0.59603-0.06l-0.35353,0.1828,0.52956,0.7897c0.29644,0.4421,0.67845,1.2466,0.86764,1.8286,0.18589,0.5709,0.37897,1.0381,0.42901,1.0381,0.05,0,0.23045-0.064,0.40101-0.1412zm8.9624-1.9892c0.0725-0.5356,0.23252-1.2034,0.35547-1.484l0.22376-0.51-0.3685-0.081c-0.24616-0.054-0.42524-0.024-0.53907,0.09-0.26563,0.2656-0.54636,1.8578-0.5074,2.8779,0.0333,0.8714,0.0523,0.9269,0.33965,0.9952,0.28328,0.067,0.30642,0.038,0.33429-0.4209,0.0165-0.2713,0.0893-0.9315,0.1618-1.467zm-8.0372,1.579c0.19758-0.1022,0.35913-0.2485,0.35913-0.3252,0-0.077-0.25054-0.3796-0.55671-0.673-0.6731-0.6449-0.924-1.2006-0.88894-1.9685,0.0145-0.3175-0.0136-0.6419-0.0625-0.7209-0.12015-0.1945-0.58483-0.1815-0.86593,0.024-0.22095,0.1616-0.21718,0.182,0.10521,0.5651,0.44483,0.5286,0.83781,1.327,1.182,2.402,0.15546,0.4854,0.30191,0.8826,0.32565,0.8826,0.0236,0,0.20452-0.084,0.4021-0.1858zm6.9769-1.0387c0.0463-0.7068,0.18589-1.5376,0.33015-1.9661,0.2016-0.5985,0.21913-0.7616,0.0902-0.8433-0.23715-0.1505-0.53846-0.1261-0.68929,0.056-0.22631,0.2727-0.51155,1.747-0.53955,2.789-0.028,1.0441-0.0158,1.066,0.65508,1.1775,0.0402,0.01,0.10911-0.5388,0.15327-1.2123zm-0.98293-0.2783c0.0429-0.7572,0.16788-1.5449,0.31373-1.9771,0.1333-0.3949,0.23264-0.7277,0.22071-0.7396-0.0119-0.012-0.16824-0.059-0.34744-0.1035-0.27733-0.07-0.35378-0.027-0.5146,0.2836-0.22765,0.44-0.55914,2.2619-0.55914,3.0727,0,0.4536,0.0475,0.5962,0.21304,0.6395,0.59616,0.1558,0.59859,0.1514,0.6737-1.1753zm-0.97586-0.1743c0.0471-0.8931,0.15011-1.5242,0.32249-1.9783,0.13927-0.3666,0.25334-0.7075,0.25334-0.7578,0-0.05-0.18979-0.091-0.42171-0.091-0.29984,0-0.46017,0.072-0.55452,0.2481-0.21584,0.4033-0.48452,2.0221-0.48452,2.9193,0,0.8156,0.007,0.8344,0.33478,0.8841,0.18407,0.028,0.36765,0.059,0.40783,0.069,0.0402,0.01,0.10421-0.572,0.14231-1.2929zm-4.172,1.0682c0-0.067-0.0822-0.1217-0.18261-0.1217-0.10044,0-0.18261,0.055-0.18261,0.1217,0,0.067,0.0822,0.1218,0.18261,0.1218,0.10043,0,0.18261-0.055,0.18261-0.1218zm3.0435-0.4782c0-0.803,0.25103-2.3398,0.48136-2.9448,0.21669-0.5701,0.21645-0.5742-0.0404-0.6431-0.73214-0.1965-0.91171,0.076-0.68199,1.0334,0.17726,0.7387,0.0866,1.2855-0.31007,1.8699-0.16556,0.2441-0.30118,0.6056-0.30118,0.8036,0,0.33,0.0352,0.3598,0.42609,0.3598,0.41464,0,0.42609-0.013,0.42609-0.4782zm-1.0956,0.1695c0-0.1491-0.0491-0.1606-0.24348-0.057-0.13392,0.072-0.24348,0.1558-0.24348,0.1869,0,0.031,0.10956,0.057,0.24348,0.057,0.13781,0,0.24348-0.081,0.24348-0.1869zm-3.6522-3.0289c0-0.028,0.0333-0.1375,0.0739-0.2435,0.0815-0.2123-0.0438-0.2465-0.30252-0.082-0.0923,0.058-0.13014,0.1671-0.0841,0.2416,0.0797,0.1289,0.31275,0.1919,0.31275,0.084zm4.3802-0.8317c0.001-0.05-0.14353-0.091-0.32139-0.091-0.31677,0-0.31872,0-0.10027,0.2464,0.17031,0.1882,0.24616,0.2098,0.32139,0.091,0.0541-0.085,0.0992-0.1961,0.10027-0.2464zm-138.04-29.5c-0.38238-0.1-0.66957-0.4146-0.66957-0.7338,0-0.2779,0.01346-0.283,0.2705-0.1029,0.33868,0.2371,1.1443,0.2437,1.5875,0.013,0.29242-0.1525,0.39042-0.1524,0.75698,0,0.57327,0.2396,1.0243,0.2204,1.4901-0.064,0.2184-0.1332,0.42231-0.1882,0.46164-0.1245,0.03874,0.063,0.27659,0.1694,0.52859,0.2372,0.42743,0.1151,0.77743,0.07,1.3878-0.1779,0.15972-0.065,0.21304-0.027,0.21304,0.151,0,0.6296-1.1491,0.9704-1.859,0.5515-0.39955-0.2358-0.41586-0.2362-0.68856-0.015-0.3735,0.3025-1.2283,0.3012-1.6033,0-0.27537-0.223-0.28962-0.223-0.59178,0-0.34026,0.2493-0.90501,0.3674-1.2831,0.2686zm-6.9306-1.5388c0.09405-0.245-0.8176-1.5278-1.6496-2.3216-0.63511-0.6057-0.78765-0.6954-1.0715-0.6301-0.25224,0.058,0.10326-0.3529,1.495-1.7287,1.7701-1.7506,4.1221-3.8007,4.357-3.8007,0.06366,0,0.04727,0.082-0.03641,0.1834-0.12649,0.1524-0.09307,0.2284,0.19819,0.4503,0.55367,0.4219,1.2235,1.1729,1.7823,1.9977,0.45202,0.6673,0.55294,0.7522,0.81991,0.6897,0.20087-0.047-0.04752,0.2122-0.73044,0.7623-1.5607,1.2576-3.3734,2.8487-4.2755,3.752-0.80275,0.8045-1.0074,0.9532-0.88967,0.6463zm0.38981-1.456c-0.56609-0.8525-1.7457-2.1231-2.0647-2.2242-0.16958-0.054-0.33344,0-0.5096,0.1803l-0.25955,0.2597,0.42609,0.3306c0.60614,0.4704,1.0254,0.9434,1.6727,1.8882l0.56609,0.8254,0.30179-0.3018,0.30179-0.3018-0.43558-0.656zm0.94348-0.5236c-0.34562-0.6418-1.7177-2.2096-2.1134-2.4141-0.3181-0.1644-0.36595-0.1558-0.6983,0.1269-0.27343,0.2325-0.31543,0.3203-0.17969,0.3754,0.36546,0.1484,1.3951,1.2223,1.9929,2.0769l0.61844,0.8858,0.30751-0.3075,0.30751-0.3076-0.2352-0.4365zm0.70767-0.028c0.18748-0.2072,0.17628-0.2593-0.17372-0.8113-0.52275-0.8242-1.4353-1.848-1.9174-2.1523l-0.40624-0.2564-0.26332,0.2665c-0.25833,0.2613-0.25882,0.269-0.02666,0.401,0.48818,0.2774,1.2917,1.1169,1.848,1.932,0.31664,0.4633,0.61235,0.8425,0.65703,0.8425s0.17153-0.1,0.2817-0.2214zm0.756-0.637c0.21962-0.2426,0.21962-0.2612,0.0017-0.6659-0.33296-0.6182-1.6459-2.1061-2.1158-2.3958l-0.40929-0.253-0.29753,0.2976-0.29753,0.2975,0.56499,0.4057c0.51654,0.371,2.0002,2.1889,2.0002,2.4519,0,0.1982,0.32151,0.1178,0.5533-0.1384h-0.000013zm0.78534-0.6629c0.25492-0.2714,0.26831-0.3361,0.12515-0.6035-0.43278-0.8087-2.2351-2.7452-2.5553-2.7452-0.04608,0-0.21621,0.1409-0.37812,0.3133-0.28901,0.3075-0.28986,0.3157-0.05165,0.4417,0.40101,0.2119,1.5534,1.4767,2.0075,2.2035,0.23435,0.3748,0.45762,0.684,0.49621,0.6873,0.03854,0,0.19856-0.1309,0.3556-0.298zm0.82892-0.7058,0.26223-0.2791-0.4245-0.6304c-0.55184-0.8194-1.8346-2.1876-2.1426-2.2862-0.13964-0.044-0.37447,0.011-0.56,0.1329-0.30934,0.2027-0.31202,0.2147-0.08535,0.3788,0.57047,0.413,1.6654,1.5912,2.0866,2.2449,0.25334,0.3932,0.49207,0.7154,0.53066,0.716,0.03854,0,0.18809-0.1246,0.33235-0.2781zm0.99376-0.9504c0.0095-0.4824-2.2485-3.0459-2.6673-3.0289-0.0372,0-0.20257,0.1064-0.36753,0.2332l-0.29984,0.2304,0.86082,0.797c0.47344,0.4384,1.0932,1.1536,1.3769,1.59,0.51581,0.7916,0.51666,0.7922,0.80482,0.5828,0.15863-0.1152,0.29023-0.2972,0.2923-0.4044zm-0.78753,4.3704c-0.30033-0.1703-0.42183-0.3424-0.42426-0.6011-0.0017-0.1799,0.04602-0.1824,0.50327-0.025,0.5527,0.1904,1.1351,0.124,1.4657-0.1672,0.18237-0.1607,0.23703-0.1593,0.48355,0.014,0.39431,0.2762,1.3403,0.2546,1.7019-0.039,0.26917-0.2188,0.30167-0.2208,0.51325-0.03,0.3276,0.2949,1.4329,0.2771,1.7701-0.029,0.25431-0.2301,0.25626-0.2295,0.25626,0.087,0,0.7507-1.2795,1.123-1.977,0.575-0.30252-0.238-0.3069-0.238-0.52007,0-0.34014,0.3758-0.94944,0.4312-1.5388,0.1399-0.50351-0.2491-0.50911-0.2492-0.80896-0.013-0.33564,0.2641-1.042,0.3096-1.4256,0.092zm-11.87-5.2907c-0.35645-0.1431-0.6087-0.4485-0.6087-0.7369,0-0.2778,0.01346-0.2829,0.2705-0.1029,0.3472,0.2432,1.3014,0.2445,1.6471,0,0.24177-0.1693,0.30484-0.168,0.65593,0.014,0.45445,0.2349,1.3683,0.1798,1.6471-0.1,0.15704-0.157,0.23228-0.1513,0.62184,0.047,0.55903,0.285,0.83477,0.2841,1.4012,0l0.45178-0.2303v0.2824c0,0.1629-0.1417,0.3943-0.33478,0.5467-0.26844,0.212-0.44958,0.2534-0.91426,0.2092-0.31871-0.03-0.6748-0.1409-0.7913-0.2457-0.19308-0.1737-0.23727-0.1698-0.49925,0.043-0.39078,0.3178-1.3464,0.3203-1.669,0-0.2296-0.2246-0.2397-0.2245-0.49633,0.01-0.26758,0.2444-1.0529,0.3927-1.3817,0.2609v-0.0001zm-2.2522-2.1353c-0.30276-0.1717-0.42183-0.3426-0.42426-0.6092-0.0017-0.1888,0.03495-0.1915,0.42037-0.03,0.55866,0.2335,0.89685,0.2225,1.4243-0.046,0.3696-0.1885,0.47052-0.1977,0.65764-0.061,0.41172,0.3011,1.8784,0.1199,1.8784-0.2319,0-0.061,0.14438,0,0.32078,0.1412,0.38518,0.303,1.1182,0.3328,1.6337,0.067,0.32504-0.1681,0.35913-0.1674,0.35913,0.01,0,0.6484-0.88261,1.0513-1.624,0.7415-0.22863-0.095-0.45178-0.232-0.49584-0.3034-0.05151-0.083-0.16325-0.047-0.31238,0.1026-0.37338,0.3734-1.0747,0.447-1.5863,0.1668-0.42061-0.2304-0.44605-0.2311-0.79484-0.019-0.406,0.2465-1.0908,0.2816-1.456,0.075z"/>
		</g>
		<g id="gBlack">
			<path id="pathBlack" stroke-linejoin="miter" d="m145.8,2268,20.13,13.12,5.585,15.16,11.28,17.16,12.19,44.2,14.07,18.74,23.76,11.87,10.17,28.93,43.9,28.66-2.633,18.65,0.3559,34.58-28.14,9.684-40.37,15.22-26.25,7.084-10.6-0.1095-11.94-7.392-27.04-11.49-13.02-13.85-31.32-13.34-16.16,2.672-6.184,0.6955-4.833,2.982-5.194,1.159-5.135,4.786-5.228,0.6834-2.276-3.355-5.269-0.6708-5.995,0.7065-5.385-0.7317-2.932,2.606-6.785,0.07-4.431,1.4-7.021-3.362,22.92-32.67,7.641-14.39,2.861-6.42-2.59-20.25-2.962-12.07-1.114-8.084-0.8178-19.2,12.27-9.97,1.894-27.53,4.403-9.254,19.66-18.96,14.32-14.68,2.233-8.861,26.36-9.679,14.92-8.248z" stroke="#000" stroke-linecap="butt" stroke-miterlimit="4" stroke-dasharray="none" stroke-width="1.21739233" fill="none"/>
		</g>
		<g id="gDots">
			<path id="pathDots" d="m1244,448.1c0,9.872-9.29,17.88-20.75,17.88s-20.75-8.003-20.75-17.88,9.29-17.88,20.75-17.88,20.75,8.003,20.75,17.88zm642.2-200.2c0,9.872-9.29,17.88-20.75,17.88s-20.75-8.003-20.75-17.88,9.29-17.88,20.75-17.88,20.75,8.003,20.75,17.88zm-852.9-227.9c0,9.872-9.29,17.88-20.75,17.88s-20.75-8.003-20.75-17.88,9.29-17.88,20.75-17.88,20.75,8.003,20.75,17.88zm-74.66-119.8c0,9.872-9.29,17.88-20.75,17.88s-20.75-8.003-20.75-17.88,9.29-17.88,20.75-17.88,20.75,8.003,20.75,17.88zm-199.2,647.1c0,9.872-9.29,17.88-20.75,17.88s-20.75-8.003-20.75-17.88,9.29-17.88,20.75-17.88,20.75,8.003,20.75,17.88zm-611.1-373.6c0,9.872-9.29,17.88-20.75,17.88s-20.75-8.003-20.75-17.88,9.29-17.88,20.75-17.88,20.75,8.003,20.75,17.88zm-62.25-34.85c0,9.872-9.29,17.88-20.75,17.88s-20.75-8.003-20.75-17.88,9.29-17.88,20.75-17.88,20.75,8.003,20.75,17.88zm287.4-106.4c0,9.872-9.29,17.88-20.75,17.88s-20.75-8.003-20.75-17.88,9.29-17.88,20.75-17.88,20.75,8.003,20.75,17.88zm217.9,43.79c0,9.872-9.29,17.88-20.75,17.88s-20.75-8.003-20.75-17.88,9.29-17.88,20.75-17.88,20.75,8.003,20.75,17.88zm-26.98,184.1c0,9.872-9.29,17.88-20.75,17.88s-20.75-8.003-20.75-17.88,9.29-17.88,20.75-17.88,20.75,8.003,20.75,17.88zm-805.1,219.9c0,9.872-9.29,17.88-20.75,17.88s-20.75-8.003-20.75-17.88,9.29-17.88,20.75-17.88,20.75,8.003,20.75,17.88zm1040-1589c0,9.872-9.29,17.88-20.75,17.88s-20.75-8.003-20.75-17.88,9.29-17.88,20.75-17.88,20.75,8.003,20.75,17.88z" transform="matrix(0.11733902,0,0,0.13621173,55.159126,2432.451)" stroke-miterlimit="4" stroke-width="0" fill="#000"/>
		</g>
		<g id="gTrackNames" font-family="Arial" transform="matrix(0.12173924,0,0,0.12173924,0.10805837,2228.9515)" font-stretch="normal" font-variant="normal" font-weight="bold" font-style="normal" fill="#000">
			<text id="textNikauLink" style="writing-mode:lr-tb;text-anchor:middle;text-align:center;" xml:space="preserve" font-size="59.20000076px" line-height="114.99999762%" y="1815" x="833"><tspan id="tspan3674" style="writing-mode:lr-tb;text-anchor:middle;text-align:center;" line-height="114.99999762%" font-family="Arial" font-size="59.20000076px" font-stretch="normal" font-variant="normal" y="1815" x="833" font-weight="bold" font-style="normal">Nikau Link</tspan></text>
			<text id="textViewingTowerAndAviary" style="writing-mode:lr-tb;text-anchor:middle;text-align:center;" xml:space="preserve" font-size="59.20000076px" line-height="114.99999762%" y="1777" x="1429"><tspan id="tspan3686" y="1777" x="1429" style="writing-mode:lr-tb;text-anchor:middle;text-align:center;" line-height="114.99999762%">Viewing Tower</tspan><tspan id="tspan3688" y="1845.08" x="1429" style="writing-mode:lr-tb;text-anchor:middle;text-align:center;" line-height="114.99999762%">&amp; Aviary</tspan></text>
			<text id="textNikauTrack" style="writing-mode:lr-tb;text-anchor:middle;text-align:center;" xml:space="preserve" font-size="98.57134247px" line-height="114.99999762%" y="1460" x="1110.832"><tspan id="tspan3706" y="1460" x="1110.832">Nikau</tspan><tspan id="tspan3708" y="1573.3571" x="1110.832">Track</tspan></text>
			<text id="textRimuTrack" style="writing-mode:lr-tb;text-anchor:middle;text-align:center;" xml:space="preserve" font-size="98.57134247px" line-height="114.99999762%" y="935.08203" x="1252.2012"><tspan id="tspan3759" y="935.08203" x="1252.2012">Rimu</tspan><tspan id="tspan3786" y="1048.4391" x="1252.2012">Track</tspan></text>
			<text id="textRataTrack" style="writing-mode:lr-tb;text-anchor:middle;text-align:center;" xml:space="preserve" font-size="98.57134247px" line-height="114.99999762%" y="2015" x="1625"><tspan id="tspan3790" style="writing-mode:lr-tb;text-anchor:middle;text-align:center;" line-height="114.99999762%" font-family="Arial" font-size="98.57134247px" font-stretch="normal" font-variant="normal" y="2015" x="1625" font-weight="bold" font-style="normal">Rata Track</tspan></text>
		</g>
	</g>
	<g id="gMarker" style="display:none">
		<circle id="light" cx="0" cy="0" r="5" stroke="black" fill="none" stroke-width="1"/>
		<text id="label" x="7.5" y="5" font-size="12" fill="black" text-anchor="left" font-family="Arial" ></text>
   </g>
</svg>
