<?xml version="1.0" encoding="UTF-8" standalone="no"?>
<!-- Created with Inkscape (http://www.inkscape.org/) -->

<svg
   xmlns:dc="http://purl.org/dc/elements/1.1/"
   xmlns:cc="http://creativecommons.org/ns#"
   xmlns:rdf="http://www.w3.org/1999/02/22-rdf-syntax-ns#"
   xmlns:svg="http://www.w3.org/2000/svg"
   xmlns="http://www.w3.org/2000/svg"
   xmlns:sodipodi="http://sodipodi.sourceforge.net/DTD/sodipodi-0.dtd"
   xmlns:inkscape="http://www.inkscape.org/namespaces/inkscape"
   width="300"
   height="360"
   id="svg1"
   version="1.1"
   inkscape:version="0.48.2 r9819"
   sodipodi:docname="vmap.svg"
   style="display:inline">
  <defs
     id="defs4">
    <linearGradient
       id="linearGradient3806">
      <stop
         style="stop-color:#ff0000;stop-opacity:1;"
         offset="0"
         id="stop3808" />
      <stop
         style="stop-color:#ff0000;stop-opacity:0;"
         offset="1"
         id="stop3810" />
    </linearGradient>
    <inkscape:perspective
       sodipodi:type="inkscape:persp3d"
       inkscape:vp_x="0 : 526.18109 : 1"
       inkscape:vp_y="0 : 1000 : 0"
       inkscape:vp_z="744.09448 : 526.18109 : 1"
       inkscape:persp3d-origin="372.04724 : 350.78739 : 1"
       id="perspective10" />
    <inkscape:perspective
       id="perspective2824"
       inkscape:persp3d-origin="0.5 : 0.33333333 : 1"
       inkscape:vp_z="1 : 0.5 : 1"
       inkscape:vp_y="0 : 1000 : 0"
       inkscape:vp_x="0 : 0.5 : 1"
       sodipodi:type="inkscape:persp3d" />
    <inkscape:perspective
       id="perspective2856"
       inkscape:persp3d-origin="0.5 : 0.33333333 : 1"
       inkscape:vp_z="1 : 0.5 : 1"
       inkscape:vp_y="0 : 1000 : 0"
       inkscape:vp_x="0 : 0.5 : 1"
       sodipodi:type="inkscape:persp3d" />
    <inkscape:perspective
       id="perspective4837"
       inkscape:persp3d-origin="0.5 : 0.33333333 : 1"
       inkscape:vp_z="1 : 0.5 : 1"
       inkscape:vp_y="0 : 1000 : 0"
       inkscape:vp_x="0 : 0.5 : 1"
       sodipodi:type="inkscape:persp3d" />
    <inkscape:perspective
       id="perspective4867"
       inkscape:persp3d-origin="0.5 : 0.33333333 : 1"
       inkscape:vp_z="1 : 0.5 : 1"
       inkscape:vp_y="0 : 1000 : 0"
       inkscape:vp_x="0 : 0.5 : 1"
       sodipodi:type="inkscape:persp3d" />
    <inkscape:perspective
       id="perspective4867-7"
       inkscape:persp3d-origin="0.5 : 0.33333333 : 1"
       inkscape:vp_z="1 : 0.5 : 1"
       inkscape:vp_y="0 : 1000 : 0"
       inkscape:vp_x="0 : 0.5 : 1"
       sodipodi:type="inkscape:persp3d" />
    <inkscape:perspective
       id="perspective4867-0"
       inkscape:persp3d-origin="0.5 : 0.33333333 : 1"
       inkscape:vp_z="1 : 0.5 : 1"
       inkscape:vp_y="0 : 1000 : 0"
       inkscape:vp_x="0 : 0.5 : 1"
       sodipodi:type="inkscape:persp3d" />
    <inkscape:perspective
       id="perspective4867-4"
       inkscape:persp3d-origin="0.5 : 0.33333333 : 1"
       inkscape:vp_z="1 : 0.5 : 1"
       inkscape:vp_y="0 : 1000 : 0"
       inkscape:vp_x="0 : 0.5 : 1"
       sodipodi:type="inkscape:persp3d" />
    <inkscape:perspective
       id="perspective4867-8"
       inkscape:persp3d-origin="0.5 : 0.33333333 : 1"
       inkscape:vp_z="1 : 0.5 : 1"
       inkscape:vp_y="0 : 1000 : 0"
       inkscape:vp_x="0 : 0.5 : 1"
       sodipodi:type="inkscape:persp3d" />
    <inkscape:perspective
       id="perspective4867-45"
       inkscape:persp3d-origin="0.5 : 0.33333333 : 1"
       inkscape:vp_z="1 : 0.5 : 1"
       inkscape:vp_y="0 : 1000 : 0"
       inkscape:vp_x="0 : 0.5 : 1"
       sodipodi:type="inkscape:persp3d" />
    <inkscape:perspective
       id="perspective4867-1"
       inkscape:persp3d-origin="0.5 : 0.33333333 : 1"
       inkscape:vp_z="1 : 0.5 : 1"
       inkscape:vp_y="0 : 1000 : 0"
       inkscape:vp_x="0 : 0.5 : 1"
       sodipodi:type="inkscape:persp3d" />
    <inkscape:perspective
       id="perspective4867-11"
       inkscape:persp3d-origin="0.5 : 0.33333333 : 1"
       inkscape:vp_z="1 : 0.5 : 1"
       inkscape:vp_y="0 : 1000 : 0"
       inkscape:vp_x="0 : 0.5 : 1"
       sodipodi:type="inkscape:persp3d" />
    <inkscape:perspective
       id="perspective4867-76"
       inkscape:persp3d-origin="0.5 : 0.33333333 : 1"
       inkscape:vp_z="1 : 0.5 : 1"
       inkscape:vp_y="0 : 1000 : 0"
       inkscape:vp_x="0 : 0.5 : 1"
       sodipodi:type="inkscape:persp3d" />
    <inkscape:perspective
       id="perspective4867-2"
       inkscape:persp3d-origin="0.5 : 0.33333333 : 1"
       inkscape:vp_z="1 : 0.5 : 1"
       inkscape:vp_y="0 : 1000 : 0"
       inkscape:vp_x="0 : 0.5 : 1"
       sodipodi:type="inkscape:persp3d" />
    <inkscape:perspective
       id="perspective4867-22"
       inkscape:persp3d-origin="0.5 : 0.33333333 : 1"
       inkscape:vp_z="1 : 0.5 : 1"
       inkscape:vp_y="0 : 1000 : 0"
       inkscape:vp_x="0 : 0.5 : 1"
       sodipodi:type="inkscape:persp3d" />
    <inkscape:perspective
       id="perspective3743"
       inkscape:persp3d-origin="117.56693 : 51.744095 : 1"
       inkscape:vp_z="235.13387 : 77.616142 : 1"
       inkscape:vp_y="0 : 1000 : 0"
       inkscape:vp_x="0 : 77.616142 : 1"
       sodipodi:type="inkscape:persp3d" />
    <inkscape:perspective
       id="perspective3769"
       inkscape:persp3d-origin="0.5 : 0.33333333 : 1"
       inkscape:vp_z="1 : 0.5 : 1"
       inkscape:vp_y="0 : 1000 : 0"
       inkscape:vp_x="0 : 0.5 : 1"
       sodipodi:type="inkscape:persp3d" />
    <inkscape:perspective
       id="perspective3001"
       inkscape:persp3d-origin="0.5 : 0.33333333 : 1"
       inkscape:vp_z="1 : 0.5 : 1"
       inkscape:vp_y="0 : 1000 : 0"
       inkscape:vp_x="0 : 0.5 : 1"
       sodipodi:type="inkscape:persp3d" />
  </defs>
  <sodipodi:namedview
     id="base"
     pagecolor="#ffffff"
     bordercolor="#666666"
     borderopacity="1.0"
     inkscape:pageopacity="0.0"
     inkscape:pageshadow="2"
     inkscape:zoom="2"
     inkscape:cx="-162.32791"
     inkscape:cy="97.816111"
     inkscape:document-units="px"
     inkscape:current-layer="gmarker"
     showgrid="false"
     inkscape:window-width="1676"
     inkscape:window-height="1006"
     inkscape:window-x="4"
     inkscape:window-y="0"
     inkscape:window-maximized="0"
     inkscape:showpageshadow="false"
     fit-margin-top="0"
     fit-margin-left="0"
     fit-margin-right="0"
     fit-margin-bottom="0"
     borderlayer="false" />
  <metadata
     id="metadata7">
    <rdf:RDF>
      <cc:Work
         rdf:about="">
        <dc:format>image/svg+xml</dc:format>
        <dc:type
           rdf:resource="http://purl.org/dc/dcmitype/StillImage" />
        <dc:title></dc:title>
        <cc:license
           rdf:resource="" />
      </cc:Work>
    </rdf:RDF>
  </metadata>
  <g
     inkscape:groupmode="layer"
     id="layer2"
     inkscape:label="bg">
    <rect
       style="fill:#ffffff;fill-opacity:1;stroke:none"
       id="rect3823"
       width="300"
       height="360"
       x="0"
       y="7.4606987e-014" />
  </g>
  <g
     inkscape:groupmode="layer"
     id="layer10"
     inkscape:label="Compound"
     style="display:inline"
     transform="translate(0,-2220)">
    <text
       xml:space="preserve"
       style="font-size:43.56641769px;font-style:normal;font-weight:normal;line-height:100%;fill:#000000;fill-opacity:1;stroke:none;font-family:Bitstream Vera Sans"
       x="443.13647"
       y="2021.6498"
       id="text3650"
       sodipodi:linespacing="100%"><tspan
         sodipodi:role="line"
         id="tspan3658"
         x="443.13647"
         y="2021.6498" /></text>
    <g
       inkscape:groupmode="layer"
       id="layer13"
       inkscape:label="Grey"
       style="display:inline">
      <path
         id="path3633"
         style="fill:none;stroke:#a7a9ac;stroke-width:1.09565306;stroke-linecap:butt;stroke-linejoin:miter;stroke-miterlimit:4;stroke-opacity:1;stroke-dasharray:none;display:inline"
         d="m 274.75178,2466.4039 3.04348,-0.8522 6.33044,1.2174 m -169.1834,-181.8922 1.12238,5.4616 14.12176,-5.9348 7.94348,-5.113 8.27827,2.5565 m -7.79131,228.8698 2.1,-2.6175"
         sodipodi:nodetypes="cccccccccc"
         inkscape:connector-curvature="0" />
    </g>
    <g
       inkscape:groupmode="layer"
       id="layer12"
       inkscape:label="PaleGreen"
       style="display:inline">
      <path
         style="fill:none;stroke:#dbe9ad;stroke-width:1.09565306;stroke-linecap:butt;stroke-linejoin:miter;stroke-miterlimit:4;stroke-opacity:1;stroke-dasharray:none;display:inline"
         d="m 96.708145,2436.6386 -1.126089,2.6783 1.491306,2.7391 3.043478,1.6435 8.64349,0 7.97392,-2.6174 5.69131,1.5826"
         id="path3641"
         sodipodi:nodetypes="ccccccc"
         inkscape:connector-curvature="0" />
    </g>
    <g
       inkscape:groupmode="layer"
       id="layer11"
       inkscape:label="DarkGreen"
       style="display:inline">
      <path
         style="fill:none;stroke:#009448;stroke-width:1.09565306;stroke-linecap:butt;stroke-linejoin:miter;stroke-miterlimit:4;stroke-opacity:1;stroke-dasharray:none;display:inline"
         d="m 62.52985,2450.768 3.256525,-1.4913 -2.221741,-5.2728 4.626095,-4.7479 7.030438,-3.9565 6.878265,-2.4576 5.234789,-5.9424 0.12174,-5.6228 -1.217392,-4.7251 4.139136,-1.0347 3.104347,-0.1218 4.260877,-4.7478 6.421741,-0.3652 8.55218,-4.2 2.92175,-18.5576 4.74783,-7.8827 6.2087,-7.7913 7.30435,-1.1337 -4.77826,-8.7271 2.86087,-9.8 3.5,-6.3305 -0.54782,-5.6609 -5.4174,-1.7043 4.74783,-10.1424 4.23462,-1.4081 -1.6781,-7.5626 -0.36522,-4.8695 -1.33913,-3.2261 2.13044,-1.887 3.65218,1.0348 1.94783,-5.9424 -1.49131,-6.4217 -2.49566,-6.9088 0.7,-6.8173 7.03198,-2.3968 4.41151,9.5793 2.37392,0.3957 1.33913,6.6652 2.67826,2.6783 -0.69846,3.9767 5.2563,-0.3043 3.20304,4.0961 1.10827,4.9461 0.32217,3.1724 5.17392,1.5217 1.52173,1.4609 -3.65218,2.9217 0,5.7218 1.85653,13.7565 -2.95218,4.5043 1.4,2.4348 5.23479,0.5174 1.58261,3.3174 -1.88696,5.5087 1.03479,3.8043 7.48696,2.9294 3.37827,2.3359 -1.88696,6.3 -2.22174,2.9826 -6.69567,2.1305 -4.07826,3.8347 -1.09565,3.6903 -1.82609,4.0402 5.53913,8.8261 0.36522,6.7565 -3.65218,5.9044 -4.2,2.6173 -3.34783,6.787 -6.26957,-0.4565 -4.93043,0.487 -3.37827,5.5087 -9.16088,1.4912 -1.46087,3.3479 -7.24349,0 -5.53913,4.9 -5.11304,8.9782 0,7.2207 0.73043,7.6315 -0.66957,6.087"
         id="path2854"
         sodipodi:nodetypes="ccccccccccccccccccccccccccccccccccccccccccccccccccccccccccccccccccccccccccccccc"
         inkscape:connector-curvature="0" />
    </g>
    <g
       inkscape:groupmode="layer"
       id="layer8"
       inkscape:label="LimeGreen"
       style="display:inline">
      <path
         style="fill:none;stroke:#abd037;stroke-width:1.09565306;stroke-linecap:butt;stroke-linejoin:miter;stroke-miterlimit:4;stroke-opacity:1;stroke-dasharray:none;display:inline"
         d="m 178.57778,2435.4821 -1.46087,-4.1391 -3.83479,-5.8435 -5.6,-2.6174 -3.65218,-5.7217 -2.98261,-5.7827 2.61739,-8.9478 0,-5.2957 -5.53913,-2.6782 -7.06087,-1.3392 -6.63479,8.5827 -6.14784,6.3913 -9.55653,3.8956 -3.34783,3.5305 -4.07826,0 -8.94783,4.7478 -6.39132,-0.3652 -3.53043,2.5565 -0.54783,8.3391 -5.173915,5.9044 -3.408702,0 -8.095658,5.9652 -7.791309,-0.4869 -7.365224,2.5565 -0.121741,10.987"
         id="path3638"
         sodipodi:nodetypes="ccccccccccccccccccccccccc"
         inkscape:connector-curvature="0" />
    </g>
    <g
       inkscape:groupmode="layer"
       id="layer7"
       inkscape:label="Yellow"
       style="display:inline">
      <path
         style="fill:none;stroke:#ffc20d;stroke-width:0.97391391;stroke-linecap:butt;stroke-linejoin:miter;stroke-miterlimit:4;stroke-opacity:1;stroke-dasharray:none;display:inline"
         d="m 24.089011,2497.094 -0.267348,-6.8696 12.613269,-7.5044 5.605368,-5.9397 -0.01,-4.4302 10.13776,-5.2163 1.412531,-7.524 5.981862,-4.8016 2.160873,-4.1544 5.310871,2.6631 5.950007,4.9152 6.315224,0.6696 -1.932611,4.1848 1.91739,5.0978 7.030443,-0.6695 1.232609,2.9369 4.854355,-0.2891 6.863045,2.5717 4.930441,1.1565 9.58696,-5.2956 2.25218,1.4913 12.5087,-9.0392 6.48262,-5.1739 5.93479,-1.3087 0.82173,-8.2478 3.34783,-5.5696 4.35033,-3.0167 4.57784,0.7089 8.14761,-2.2555 7.30251,-1.0367 7.17185,0.6822 6.10695,-1.0956 6.19948,0.7107 3.04348,3.3586 1.4,5.2222 4.40413,1.7006 4.52588,1.2909 2.98076,3.6863 5.98675,-0.3456 7.83587,4.7549 6.29848,4.1715 5.36882,-3.0758 6.16043,-6.8998 8.11903,-1.0615 4.74599,3.2439 8.67576,3.7506 6.3449,1.0637 3.33152,2.2789 1.20141,4.3844 4.91599,2.057 -2.195,9.1446 -2.39174,5.9547 -3.72196,4.2357 -2.21098,3.6236 -10.40317,2.5992 -11.66946,0.3834 -3.95282,2.2162 -4.94643,5.1346 -5.97076,-1.4001 -2.98968,3.6809 -0.67848,4.1769 -9.25587,-7.4925 -5.34023,0.3151 -4.99501,-3.9888 -6.59822,0.174 -7.59853,4.5329 -4.19663,5.9705 -0.30772,6.7996 -7.80914,-3.3497 -4.4813,-5.5518 -5.66736,-2.8451 -5.53265,-2.4237 -3.31925,1.4018 -1.07228,4.5314 -2.63891,3.029 -0.32217,4.6784 -7.56045,-0.6914 -5.1026,-3.3552 0.0504,-5.197 -5.865,-6.5703 -4.9787,-3.772 -2.9737,-0.4012 0.39565,-4.5956 1.15652,-3.6827 -1.85652,-8.4304 -6.85337,-6.9324"
         id="path4972"
         sodipodi:nodetypes="cccccccccccccccccccccccccccccccccccccccccccccccccccccccccccccccccccccccccccccccccccccc"
         inkscape:connector-curvature="0" />
    </g>
    <g
       inkscape:groupmode="layer"
       id="layer4"
       inkscape:label="River"
       style="display:inline">
      <g
         transform="matrix(0.12173924,0,0,0.12173924,-793.99449,2294.3619)"
         style="display:inline"
         id="g2862">
        <g
           id="g4823" />
        <path
           style="fill:#110b0c"
           d="m 8162.5541,1700.3658 c -1.416,-1.416 -2.5746,-3.5648 -2.5746,-4.775 0,-2.0447 0.1258,-2.0867 1.7761,-0.5931 2.9691,2.687 9.1904,3.0945 13.4481,0.8808 3.1779,-1.6522 3.9848,-1.7387 5.5,-0.5891 2.4111,1.8293 11.3055,1.7788 13.9581,-0.079 1.8819,-1.318 2.4558,-1.3187 4.9726,-0.01 3.6037,1.8795 9.0457,1.9009 12.5951,0.049 2.6373,-1.3757 2.75,-1.3354 2.75,0.9832 0,3.2137 -3.9645,5.7138 -8.9516,5.6449 -4.142,-0.057 -8.0484,-1.6036 -8.0484,-3.1862 0,-0.5141 -1.6875,0.2166 -3.75,1.6238 -4.2845,2.9231 -9.9779,2.8424 -13.3276,-0.189 -1.8277,-1.6541 -2.0204,-1.6511 -3.9123,0.061 -1.1168,1.0107 -4.1553,2.0089 -6.9254,2.2751 -4.3103,0.4141 -5.2616,0.1481 -7.5101,-2.1004 l 0,0 0,0 0,0 0,0 0,0 0,0 0,0 0,0 0,0 0,0 z m -13.0746,-14.5053 c -3.7834,-1.2489 -5.3424,-2.6667 -6.0524,-5.5041 l -0.7116,-2.844 3.0824,1.594 c 4.1536,2.1479 10.409,2.0401 13.2095,-0.2276 2.178,-1.7637 2.3641,-1.7617 5.8608,0.063 4.2129,2.1985 10.2467,1.8508 13.1277,-0.7564 1.7125,-1.5498 2.0436,-1.5566 4.1449,-0.085 2.9228,2.0472 10.7195,2.0718 13.6162,0.043 2.1119,-1.4792 2.2225,-1.4371 2.2225,0.845 0,1.321 -0.9472,3.259 -2.105,4.3067 -2.8653,2.593 -10.8963,2.6188 -13.7413,0.044 -2.0089,-1.818 -2.1181,-1.8123 -4.7398,0.25 -3.5034,2.7557 -10.287,2.849 -13.5531,0.1862 -2.2835,-1.8616 -2.4263,-1.8651 -4.3608,-0.1079 -2.31,2.0983 -7.1027,3.1493 -10,2.1928 l 0,3e-4 z m -41.8374,-8.7233 c 0.628,-1.6367 -0.8893,-6.5767 -4.8951,-15.9369 -3.924,-9.1689 -7.4159,-13.8252 -9.8841,-13.1798 -3.4733,0.9083 -1.9296,-1.1198 3.3666,-4.423 7.8218,-4.8785 51.3094,-26.6415 54.7425,-27.3956 1.6973,-0.3727 5.2354,-6e-4 8.2409,0.8668 2.8966,0.836 10.8916,2.4704 17.7666,3.632 14.6517,2.4756 28.2841,5.3624 36,7.6233 4.7516,1.3923 5.1995,1.7251 3.2918,2.4462 -3.4484,1.3035 -5.6749,10.2901 -5.7386,23.1628 -0.045,9.1226 -0.2809,10.6612 -1.5708,10.2564 -8.1524,-2.5588 -43.7655,-8.4727 -51.0878,-8.4837 -4.2311,-0.01 -18.5729,6.0762 -37.4967,15.9029 -7.2903,3.7857 -13.0212,6.2736 -12.7353,5.5286 z m 5.2766,-3.3561 c 2.3288,-1.79 2.3809,-2.0691 1.1512,-6.1734 -2.0131,-6.7191 -8.6248,-20.4418 -10.9872,-22.8042 -2.0173,-2.0173 -2.3068,-2.0493 -5.167,-0.5702 l -3.03,1.5669 2.6077,3.099 c 3.4714,4.1255 7.71,12.8649 9.9673,20.5511 1.0095,3.4375 2.1017,6.24 2.4271,6.2278 0.3254,-0.012 1.6893,-0.8659 3.0309,-1.897 z m 7.0571,-3.5789 2.897,-1.4981 -1.54,-5.1859 c -2.2225,-7.484 -8.7069,-21.0182 -11.0701,-23.1055 -1.7057,-1.5067 -2.4372,-1.5993 -4.6535,-0.5895 -2.9567,1.3471 -3.3501,3.0343 -1.1361,4.8718 2.7063,2.246 7.2929,11.3754 9.6693,19.2459 1.2854,4.2574 2.4719,7.7449 2.6368,7.75 0.1648,0.01 1.6033,-0.6647 3.1966,-1.4887 z m 7.4566,-3.6624 c 1.4009,-0.6383 2.5471,-1.4566 2.5471,-1.8185 0,-4.7368 -9.2355,-25.1293 -12.8633,-28.4028 -1.9409,-1.7513 -2.2556,-1.7703 -4.5386,-0.2744 l -2.4532,1.6074 4.1861,6.2744 c 2.3209,3.4786 5.4478,10.1733 7.0174,15.0244 1.5572,4.8125 2.9946,8.75 3.1944,8.75 0.1997,0 1.5093,-0.5222 2.9101,-1.1605 z m 8,-4 c 1.4009,-0.6383 2.5471,-1.4679 2.5471,-1.8435 0,-3.8336 -9.7081,-24.7041 -13.0423,-28.0383 -1.8406,-1.8406 -2.2117,-1.8777 -4.8959,-0.4897 l -2.9044,1.5019 4.3503,6.4874 c 2.4348,3.631 5.573,10.242 7.1274,15.015 1.5274,4.6902 3.1132,8.5277 3.524,8.5277 0.4107,0 1.893,-0.5222 3.2938,-1.1605 z m 73.622,-16.3395 c 0.5953,-4.4 1.9095,-9.885 2.9204,-12.1888 l 1.8381,-4.1889 -3.0272,-0.6649 c -2.0215,-0.444 -3.4928,-0.1994 -4.4283,0.7361 -2.182,2.182 -4.4879,15.2626 -4.1677,23.6411 0.2736,7.1575 0.4295,7.6142 2.7898,8.1746 2.3269,0.5524 2.5171,0.3131 2.7463,-3.4578 0.1355,-2.2283 0.7334,-7.6514 1.3286,-12.0514 z m -66.0252,12.9743 c 1.6226,-0.8391 2.9503,-2.0412 2.9503,-2.6714 0,-0.6302 -2.058,-3.1177 -4.5734,-5.5278 -5.5289,-5.2977 -7.5899,-9.8624 -7.302,-16.1725 0.119,-2.608 -0.1119,-5.2731 -0.5131,-5.9222 -0.987,-1.597 -4.804,-1.4914 -7.1126,0.1968 -1.8152,1.3272 -1.7839,1.4954 0.8642,4.6425 3.6536,4.3421 6.8816,10.902 9.7088,19.7303 1.277,3.9875 2.4805,7.25 2.6746,7.25 0.194,0 1.6805,-0.6866 3.3032,-1.5257 z m 57.3088,-8.532 c 0.3804,-5.8056 1.5271,-12.6344 2.7123,-16.1526 1.6562,-4.9162 1.7995,-6.2559 0.7412,-6.927 -1.9484,-1.2357 -4.4232,-1.0361 -5.662,0.4566 -1.8589,2.2398 -4.2023,14.3535 -4.4316,22.9087 -0.23,8.5756 -0.1295,8.7563 5.3813,9.6723 0.3298,0.055 0.8963,-4.4262 1.2588,-9.958 z m -8.0741,-2.2855 c 0.3522,-6.22 1.3794,-12.694 2.5767,-16.2406 1.095,-3.2436 1.9108,-5.9776 1.8129,-6.0756 -0.098,-0.098 -1.3821,-0.4802 -2.8537,-0.8496 -2.2781,-0.5717 -2.9061,-0.2258 -4.2272,2.3289 -1.8695,3.6152 -4.5931,18.5807 -4.5931,25.2378 0,3.7264 0.3902,4.8976 1.75,5.253 4.8966,1.2796 4.9173,1.2435 5.5344,-9.6539 z m -8.0156,-1.4319 c 0.387,-7.336 1.2326,-12.5225 2.6493,-16.25 1.1445,-3.0112 2.0811,-5.8124 2.0814,-6.2249 3e-4,-0.4125 -1.5587,-0.75 -3.4643,-0.75 -2.4628,0 -3.7802,0.5893 -4.5554,2.0378 -1.7731,3.313 -3.9798,16.6115 -3.9798,23.9837 0,6.7003 0.058,6.8545 2.75,7.2622 1.5125,0.2292 3.0201,0.4841 3.3502,0.5665 0.3301,0.082 0.856,-4.699 1.1686,-10.6253 z m -34.2688,8.7751 c 0,-0.55 -0.675,-1 -1.5,-1 -0.825,0 -1.5,0.45 -1.5,1 0,0.55 0.675,1 1.5,1 0.825,0 1.5,-0.45 1.5,-1 z m 25,-3.9276 c 0,-6.596 2.0623,-19.2149 3.9539,-24.1932 1.7795,-4.6834 1.7775,-4.7163 -0.3316,-5.2823 -6.0142,-1.6141 -7.4892,0.6209 -5.6019,8.4882 1.4558,6.0685 0.7115,10.5573 -2.5468,15.3587 -1.3605,2.0048 -2.4736,4.975 -2.4736,6.6006 0,2.7112 0.2895,2.9556 3.5,2.9556 3.4059,0 3.5,-0.1056 3.5,-3.9276 z m -9,1.3924 c 0,-1.2253 -0.4037,-1.3191 -2,-0.4648 -1.1,0.5887 -2,1.2795 -2,1.5352 0,0.2556 0.9,0.4648 2,0.4648 1.1315,0 2,-0.6667 2,-1.5352 z m -30,-24.883 c 0,-0.23 0.2731,-1.13 0.607,-2 0.6692,-1.7439 -0.3594,-2.0247 -2.4851,-0.6783 -0.758,0.4801 -1.0689,1.3732 -0.691,1.9847 0.6545,1.0589 2.5691,1.5758 2.5691,0.6936 z m 35.9847,-6.8318 c 0.01,-0.4125 -1.1794,-0.75 -2.6397,-0.75 -2.602,0 -2.6184,0.04 -0.8236,2.0236 1.3989,1.5458 2.0222,1.7229 2.6397,0.75 0.4445,-0.7005 0.8152,-1.6111 0.8236,-2.0236 z M 7038.4795,1380.0162 c -3.1412,-0.8204 -5.5,-3.4055 -5.5,-6.0276 0,-2.2821 0.1106,-2.3242 2.2225,-0.845 2.7819,1.9485 9.4003,2.002 13.0363,0.1053 2.4016,-1.2528 3.2068,-1.252 6.2179,0.01 4.7088,1.9675 8.4137,1.8095 12.237,-0.5217 1.7939,-1.0938 3.4693,-1.5459 3.7922,-1.0234 0.3182,0.5148 2.2719,1.392 4.3415,1.9493 3.5112,0.9455 6.3856,0.577 11.4026,-1.4617 1.3119,-0.5331 1.75,-0.2225 1.75,1.2408 0,5.1711 -9.4387,7.9707 -15.2709,4.5297 -3.2822,-1.9366 -3.4161,-1.9396 -5.6562,-0.1256 -3.0684,2.4846 -10.0898,2.4745 -13.1692,-0.019 -2.2619,-1.8316 -2.3791,-1.8319 -4.8607,-0.014 -2.795,2.0478 -7.4335,3.0185 -10.543,2.2064 l 0,0 0,0 0,0 0,0 0,0 0,0 0,0 0,0 0,0 0,0 z m -56.9284,-12.6418 c 0.7726,-2.0133 -6.7159,-12.5534 -13.5507,-19.0728 -5.2171,-4.9762 -6.4704,-5.7132 -8.8021,-5.1757 -2.0723,0.4776 0.8482,-2.8992 12.2812,-14.2003 14.5429,-14.3751 33.8586,-31.2253 35.7942,-31.2253 0.5229,0 0.3883,0.6777 -0.2991,1.5059 -1.039,1.2519 -0.7645,1.8758 1.6276,3.6989 4.548,3.4663 10.0515,9.6349 14.6427,16.4125 3.713,5.4811 4.5425,6.179 6.7346,5.6653 1.6499,-0.3866 -0.3903,1.7427 -6,6.2617 -12.8186,10.3266 -27.7126,23.3972 -35.1204,30.821 -6.5938,6.6081 -8.2754,7.8296 -7.308,5.3088 z m 3.2019,-11.9601 c -4.6501,-7.0034 -14.3346,-17.4399 -16.9552,-18.2717 -1.3933,-0.4422 -2.7389,0.034 -4.1858,1.4814 l -2.1325,2.1332 3.5,2.7159 c 4.9794,3.8639 8.423,7.7494 13.7439,15.5074 l 4.6503,6.7801 2.4787,-2.4786 2.4787,-2.4787 -3.5781,-5.389 z m 7.7497,-4.3007 c -2.839,-5.2718 -14.1114,-18.149 -17.3557,-19.8267 -2.6129,-1.3512 -3.0061,-1.2797 -5.7363,1.0423 -2.2455,1.9097 -2.5908,2.6311 -1.4762,3.0837 3.0023,1.219 11.4645,10.0405 16.3679,17.0631 l 5.0802,7.2758 2.5258,-2.5258 2.5258,-2.5259 -1.9315,-3.5865 z m 5.8127,-0.2319 c 1.5399,-1.7016 1.448,-2.1305 -1.4269,-6.6638 -4.2935,-6.7702 -11.7859,-15.1841 -15.7459,-17.6827 l -3.337,-2.1055 -2.163,2.1888 c -2.1218,2.147 -2.126,2.2098 -0.219,3.2936 4.0103,2.2791 10.6071,9.1746 15.1801,15.8674 2.6009,3.8064 5.0296,6.9208 5.3973,6.9208 0.3677,0 1.4092,-0.8184 2.3144,-1.8186 z m 6.2095,-5.2316 c 1.8036,-1.9929 1.804,-2.1456 0.014,-5.4696 -2.7347,-5.0779 -13.5245,-17.2956 -17.3772,-19.6767 l -3.3622,-2.0779 -2.4436,2.4435 -2.4435,2.4436 4.641,3.3329 c 4.2433,3.0473 16.4262,17.9854 16.4262,20.141 0,1.628 2.6411,0.9675 4.5454,-1.1368 l -10e-5,0 z m 6.4512,-5.4462 c 2.094,-2.2289 2.2041,-2.76 1.0282,-4.9572 -3.5552,-6.643 -18.3594,-22.5464 -20.988,-22.5464 -0.3785,0 -1.7763,1.1582 -3.1062,2.5739 -2.3735,2.5264 -2.3813,2.5932 -0.4243,3.6275 3.2943,1.7409 12.7563,12.1272 16.4937,18.1047 1.925,3.0788 3.7591,5.6194 4.0757,5.6458 0.3166,0.026 1.631,-1.0753 2.9209,-2.4483 z m 6.809,-5.7967 2.1543,-2.2931 -3.4868,-5.1777 c -4.533,-6.731 -15.0686,-17.973 -17.5955,-18.7749 -1.1473,-0.3642 -3.0758,0.094 -4.5999,1.0925 -2.5409,1.6649 -2.5632,1.7639 -0.7011,3.112 4.6855,3.3921 13.6754,13.066 17.1405,18.4448 2.0806,3.2296 4.042,5.8759 4.3586,5.8808 0.3166,0 1.5451,-1.0232 2.7299,-2.2844 z m 8.163,-7.8069 c 0.078,-3.9632 -18.4656,-25.0157 -21.9129,-24.8778 -0.3056,0.012 -1.6642,0.8741 -3.019,1.9152 l -2.4633,1.893 7.071,6.5467 c 3.8891,3.6007 8.9797,9.4762 11.3125,13.0567 4.2371,6.5033 4.2438,6.5082 6.6108,4.7881 1.3032,-0.947 2.3836,-2.4419 2.4009,-3.3219 z m -6.4686,35.9051 c -2.4671,-1.399 -3.4648,-2.8128 -3.4847,-4.9381 -0.014,-1.4783 0.378,-1.4976 4.1343,-0.2034 4.54,1.5641 9.3245,1.0179 12.0392,-1.3745 1.498,-1.3201 1.9467,-1.3076 3.9725,0.1113 3.2392,2.2689 11.0131,2.0908 13.9779,-0.3202 2.211,-1.798 2.4785,-1.8138 4.2158,-0.25 2.6911,2.4224 11.7656,2.2757 14.54,-0.2352 2.089,-1.8905 2.105,-1.8851 2.105,0.7111 0,6.1659 -10.5137,9.2241 -16.2362,4.7227 -2.4849,-1.9546 -2.5208,-1.9547 -4.2722,-0.02 -2.7939,3.0872 -7.799,3.5424 -12.6362,1.1491 -4.1359,-2.0462 -4.1816,-2.047 -6.6448,-0.1094 -2.7571,2.1688 -8.5588,2.5433 -11.7106,0.7561 l 0,5e-4 z m -97.5,-43.4641 c -2.9276,-1.1749 -5,-3.6837 -5,-6.0527 0,-2.2821 0.1106,-2.3242 2.2225,-0.845 2.8522,1.9977 10.6881,2.0081 13.5295,0.018 1.9858,-1.3908 2.5039,-1.3801 5.3882,0.1114 3.7326,1.9302 11.2392,1.4767 13.5334,-0.8175 1.29,-1.29 1.9079,-1.2429 5.1084,0.3888 4.5925,2.3414 6.8574,2.3343 11.5066,-0.036 l 3.7114,-1.8922 0,2.3196 c 0,1.3376 -1.1643,3.2388 -2.75,4.4906 -2.2054,1.741 -3.6926,2.0813 -7.5101,1.7184 -2.6181,-0.2489 -5.5431,-1.1571 -6.5,-2.0182 -1.5855,-1.4266 -1.9494,-1.3952 -4.1007,0.3542 -3.2101,2.6105 -11.0624,2.6311 -13.7142,0.036 -1.8857,-1.8453 -1.9689,-1.8436 -4.0767,0.082 -2.1979,2.0079 -8.6492,3.2261 -11.3483,2.1428 l 0,-2e-4 z m -18.5,-17.5359 c -2.4874,-1.4105 -3.4649,-2.8144 -3.4847,-5.0041 -0.014,-1.5508 0.2871,-1.5726 3.4526,-0.25 4.5891,1.9175 7.3671,1.8274 11.6953,-0.3793 3.0359,-1.5478 3.8647,-1.6245 5.4025,-0.5 3.3817,2.4728 15.4343,0.9853 15.4343,-1.9048 0,-0.5016 1.1857,0.021 2.6349,1.1605 3.1642,2.489 9.1846,2.7344 13.4148,0.5469 2.6703,-1.3809 2.9503,-1.3746 2.9503,0.066 0,5.3263 -7.2496,8.6359 -13.3414,6.0906 -1.8779,-0.7846 -3.7108,-1.9061 -4.073,-2.4922 -0.4231,-0.6846 -1.3406,-0.3835 -2.5663,0.8422 -3.0668,3.0668 -8.8278,3.6724 -13.0315,1.3698 -3.4551,-1.8925 -3.6643,-1.8976 -6.5286,-0.1581 -3.3347,2.0251 -8.9602,2.3133 -11.9592,0.6127 l 0,-2e-4 z"
           id="path2864"
           sodipodi:nodetypes="csssssscccccccscscscscsccccscscscscscccccscccccsccccccccccccccccccccccccccccccccccccccccccccccccscscsccccccccccccscscsccccccccccccccccccccccccccccccccccccccccccsccccscsscsscsccscccccccccsccccccccsccccccccscccccscccsccsccccccccsccccccccsccccsccsccsccscccccsccccsccscccccsccscccccscccccsccsccccccccccscsccssccccsccc"
           inkscape:connector-curvature="0" />
      </g>
    </g>
    <g
       inkscape:groupmode="layer"
       id="layer5"
       inkscape:label="Black"
       style="display:inline">
      <path
         style="fill:none;stroke:#000000;stroke-width:1.21739233;stroke-linecap:butt;stroke-linejoin:miter;stroke-miterlimit:4;stroke-opacity:1;stroke-dasharray:none;display:inline"
         d="m 145.79949,2268.4711 20.13263,13.1174 5.58478,15.1596 11.28265,17.1557 12.18885,44.1979 14.06712,18.7445 23.76174,11.8742 10.16928,28.9342 43.90476,28.6595 -2.63336,18.6488 0.35586,34.5763 -28.13635,9.6837 -40.36652,15.2219 -26.24877,7.0841 -10.59646,-0.1095 -11.94212,-7.3923 -27.04471,-11.4942 -13.02153,-13.8519 -31.316253,-13.3355 -16.162884,2.6722 -6.183839,0.6955 -4.833236,2.9824 -5.1945,1.1591 -5.135419,4.7859 -5.227989,0.6834 -2.275969,-3.3551 -5.268869,-0.6708 -5.99535,0.7065 -5.385387,-0.7317 -2.932031,2.6056 -6.784864,0.07 -4.431093,1.4003 -7.020957,-3.3624 22.921032,-32.6706 7.641364,-14.3936 2.860718,-6.4205 -2.589863,-20.2473 -2.962467,-12.0724 -1.113853,-8.0835 -0.817784,-19.1995 12.266776,-9.9699 1.893818,-27.5265 4.402821,-9.2539 19.66124,-18.9602 14.316191,-14.6854 2.232926,-8.8613 26.358221,-9.6791 14.91893,-8.2485 z"
         id="path4827"
         sodipodi:nodetypes="ccccccccccccccccccccccccccccccccccccccccccccccccc"
         inkscape:connector-curvature="0" />
    </g>
    <g
       inkscape:groupmode="layer"
       id="layer9"
       inkscape:label="Dots"
       style="display:inline">
      <path
         id="path4857-16"
         transform="matrix(0.11733902,0,0,0.13621173,55.159126,2432.451)"
         style="fill:#000000;fill-opacity:1;stroke:#000000;stroke-width:0;stroke-linecap:butt;stroke-miterlimit:4;stroke-opacity:1;display:inline"
         d="m 1243.75,448.125 c 0,9.87209 -9.2901,17.875 -20.75,17.875 -11.4599,0 -20.75,-8.00291 -20.75,-17.875 0,-9.87209 9.2901,-17.875 20.75,-17.875 11.4599,0 20.75,8.00291 20.75,17.875 z m 642.2126,-200.20009 c 0,9.87209 -9.2901,17.875 -20.75,17.875 -11.4599,0 -20.75,-8.00291 -20.75,-17.875 0,-9.87209 9.2901,-17.875 20.75,-17.875 11.4599,0 20.75,8.00291 20.75,17.875 z M 1033.1375,20.018698 c 0,9.87209 -9.2901,17.875 -20.75,17.875 -11.4599,0 -20.74999,-8.00291 -20.74999,-17.875 0,-9.87209 9.29009,-17.8749999 20.74999,-17.8749999 11.4599,0 20.75,8.0029099 20.75,17.8749999 z M 958.43751,-99.744115 c 0,9.87209 -9.2901,17.875 -20.75,17.875 -11.4599,0 -20.75,-8.00291 -20.75,-17.875 0,-9.872095 9.2901,-17.875005 20.75,-17.875005 11.4599,0 20.75,8.00291 20.75,17.875005 z M 759.2375,547.33085 c 0,9.87209 -9.2901,17.875 -20.75,17.875 -11.4599,0 -20.75,-8.00291 -20.75,-17.875 0,-9.87209 9.2901,-17.875 20.75,-17.875 11.4599,0 20.75,8.00291 20.75,17.875 z M 148.15,173.74334 c 0,9.87209 -9.2901,17.875 -20.75,17.875 -11.4599,0 -20.75,-8.00291 -20.75,-17.875 0,-9.87209 9.2901,-17.875 20.75,-17.875 11.4599,0 20.75,8.00291 20.75,17.875 z M 85.899986,138.88732 c 0,9.87209 -9.2901,17.875 -20.75,17.875 -11.4599,0 -20.75,-8.00291 -20.75,-17.875 0,-9.87209 9.2901,-17.875 20.75,-17.875 11.4599,0 20.75,8.00291 20.75,17.875 z M 373.28749,32.530836 c 0,9.87209 -9.2901,17.875 -20.75,17.875 -11.4599,0 -20.75,-8.00291 -20.75,-17.875 0,-9.87209 9.2901,-17.875 20.75,-17.875 11.4599,0 20.75,8.00291 20.75,17.875 z m 217.87501,43.79432 c 0,9.87209 -9.2901,17.875 -20.75,17.875 -11.4599,0 -20.75,-8.00291 -20.75,-17.875 0,-9.87209 9.2901,-17.875 20.75,-17.875 11.4599,0 20.75,8.00291 20.75,17.875 z m -26.975,184.111894 c 0,9.87209 -9.2901,17.875 -20.75,17.875 -11.4599,0 -20.75,-8.00291 -20.75,-17.875 0,-9.87209 9.2901,-17.875 20.75,-17.875 11.4599,0 20.75,8.00291 20.75,17.875 z m -805.10003,219.86286 c 0,9.87209 -9.2901,17.875 -20.75,17.875 -11.4599,0 -20.75,-8.00291 -20.75,-17.875 0,-9.87209 9.2901,-17.875 20.75,-17.875 11.4599,0 20.75,8.00291 20.75,17.875 z M 798.6625,-1108.7879 c 0,9.8721 -9.2901,17.875 -20.75,17.875 -11.4599,0 -20.75,-8.0029 -20.75,-17.875 0,-9.8721 9.2901,-17.875 20.75,-17.875 11.4599,0 20.75,8.0029 20.75,17.875 z"
         inkscape:connector-curvature="0" />
    </g>
    <g
       inkscape:groupmode="layer"
       id="layer6"
       inkscape:label="Text"
       style="display:inline">
      <g
         style="display:inline"
         id="g3048"
         transform="matrix(0.12173924,0,0,0.12173924,0.10805837,2228.9515)">
        <text
           sodipodi:linespacing="115%"
           id="text3672"
           y="1815"
           x="833"
           style="font-size:59.20000076px;font-style:normal;font-variant:normal;font-weight:bold;font-stretch:normal;text-align:center;line-height:114.99999762%;writing-mode:lr-tb;text-anchor:middle;fill:#000000;fill-opacity:1;stroke:none;font-family:Arial;-inkscape-font-specification:Arial Bold"
           xml:space="preserve"><tspan
             style="font-size:59.20000076px;font-style:normal;font-variant:normal;font-weight:bold;font-stretch:normal;text-align:center;line-height:114.99999762%;writing-mode:lr-tb;text-anchor:middle;font-family:Arial;-inkscape-font-specification:Arial Bold"
             y="1815"
             x="833"
             id="tspan3674"
             sodipodi:role="line">Nikau Link</tspan></text>
        <text
           sodipodi:linespacing="115%"
           id="text3684"
           y="1777"
           x="1429"
           style="font-size:59.20000076px;font-style:normal;font-variant:normal;font-weight:bold;font-stretch:normal;text-align:center;line-height:114.99999762%;writing-mode:lr-tb;text-anchor:middle;fill:#000000;fill-opacity:1;stroke:none;font-family:Arial;-inkscape-font-specification:Arial Bold"
           xml:space="preserve"><tspan
             style="font-size:59.20000076px;font-style:normal;font-variant:normal;font-weight:bold;font-stretch:normal;text-align:center;line-height:114.99999762%;writing-mode:lr-tb;text-anchor:middle;font-family:Arial;-inkscape-font-specification:Arial Bold"
             y="1777"
             x="1429"
             id="tspan3686"
             sodipodi:role="line">Viewing Tower</tspan><tspan
             style="font-size:59.20000076px;font-style:normal;font-variant:normal;font-weight:bold;font-stretch:normal;text-align:center;line-height:114.99999762%;writing-mode:lr-tb;text-anchor:middle;font-family:Arial;-inkscape-font-specification:Arial Bold"
             id="tspan3688"
             y="1845.08"
             x="1429"
             sodipodi:role="line">&amp; Aviary</tspan></text>
        <text
           sodipodi:linespacing="115%"
           id="text3702"
           y="1460"
           x="1110.832"
           style="font-size:98.57134247px;font-style:normal;font-variant:normal;font-weight:bold;font-stretch:normal;text-align:center;line-height:114.99999762%;writing-mode:lr-tb;text-anchor:middle;fill:#000000;fill-opacity:1;stroke:none;font-family:Arial;-inkscape-font-specification:Arial Bold"
           xml:space="preserve"><tspan
             y="1460"
             x="1110.832"
             id="tspan3706"
             sodipodi:role="line">Nikau</tspan><tspan
             y="1573.3571"
             x="1110.832"
             id="tspan3708"
             sodipodi:role="line">Track</tspan></text>
        <text
           sodipodi:linespacing="115%"
           id="text3757"
           y="935.08203"
           x="1252.2012"
           style="font-size:98.57134247px;font-style:normal;font-variant:normal;font-weight:bold;font-stretch:normal;text-align:center;line-height:114.99999762%;writing-mode:lr-tb;text-anchor:middle;fill:#000000;fill-opacity:1;stroke:none;display:inline;font-family:Arial;-inkscape-font-specification:Arial Bold"
           xml:space="preserve"><tspan
             y="935.08203"
             x="1252.2012"
             id="tspan3759"
             sodipodi:role="line">Rimu</tspan><tspan
             id="tspan3786"
             y="1048.4391"
             x="1252.2012"
             sodipodi:role="line">Track</tspan></text>
        <text
           sodipodi:linespacing="115%"
           id="text3788"
           y="2015"
           x="1625"
           style="font-size:98.57134247px;font-style:normal;font-variant:normal;font-weight:bold;font-stretch:normal;text-align:center;line-height:114.99999762%;writing-mode:lr-tb;text-anchor:middle;fill:#000000;fill-opacity:1;stroke:none;font-family:Arial;-inkscape-font-specification:Arial Bold"
           xml:space="preserve"><tspan
             style="font-size:98.57134247px;font-style:normal;font-variant:normal;font-weight:bold;font-stretch:normal;text-align:center;line-height:114.99999762%;writing-mode:lr-tb;text-anchor:middle;font-family:Arial;-inkscape-font-specification:Arial Bold"
             y="2015"
             x="1625"
             id="tspan3790"
             sodipodi:role="line">Rata Track</tspan></text>
      </g>
    </g>
  </g>
  <g
     inkscape:groupmode="layer"
     id="gmarker"
     inkscape:label="marker">
    <path
       sodipodi:type="arc"
       style="fill:#ff0000;fill-opacity:1;fill-rule:evenodd;stroke:none"
       id="pmarker"
       sodipodi:cx="-26.040609"
       sodipodi:cy="49.796955"
       sodipodi:rx="2.2842636"
       sodipodi:ry="2.2842636"
       d="m -23.756346,49.796955 a 2.2842636,2.2842636 0 1 1 -4.568527,0 2.2842636,2.2842636 0 1 1 4.568527,0 z"
       transform="matrix(1.6416669,0,0,1.6416669,56.500006,264.49999)"
       onload="alert('HELLO RUSSELL')"
       onclick="transform=&quot;translate(10,10)&quot;" />
  </g>
</svg>
